<svg xmlns="http://www.w3.org/2000/svg" width="716" height="140" fill="none"><path d="M201.94 82.05c2.99.86 5.62 2.66 7.52 5.12a13.81 13.81 0 0 1 2.72 8.72 13 13 0 0 1-5.76 11.36c-3.79 2.62-9.33 3.93-16.64 3.92h-28.96v-56h27.36c6.82 0 12.05 1.3 15.68 3.92a12.36 12.36 0 0 1 5.52 10.63 13.62 13.62 0 0 1-7.44 12.29v.04ZM173.7 64.92v13.2h12.88c3.2 0 5.62-.55 7.28-1.67a5.6 5.6 0 0 0 2.48-4.96 5.42 5.42 0 0 0-2.48-4.89c-1.66-1.12-4.08-1.68-7.28-1.68H173.7Zm15.14 36.5c3.4 0 5.97-.56 7.67-1.68a5.62 5.62 0 0 0 2.57-5.04 5.72 5.72 0 0 0-2.57-5.12c-1.7-1.17-4.27-1.76-7.67-1.76H173.7v13.6h15.14ZM224.62 111.17V55.17h12.88v56h-12.88ZM285.46 66.84v13.6h27.12v11.36h-27.12v19.37h-12.88v-56h44v11.67h-31.12ZM351.9 82.29h-12.88v28.88h-12.88v-56h25.76c6.66 0 11.87 1.45 15.6 4.36 3.73 2.9 5.6 6.89 5.6 11.96 0 3.73-.87 6.82-2.6 9.28a17.3 17.3 0 0 1-7.4 5.92l12.88 24.48h-14.16l-9.92-28.88Zm-12.88-11.37h11.36c3.2 0 5.58-.64 7.12-1.92a6.6 6.6 0 0 0 2.32-5.36 6.37 6.37 0 0 0-2.32-5.28c-1.54-1.28-3.92-1.92-7.12-1.92H339.02v14.48ZM421.34 99.81c-2.4 3.95-5.81 7.01-10.24 9.2-4.43 2.19-9.6 3.28-15.52 3.28-5.92 0-11.1-1.1-15.52-3.28-4.43-2.19-7.84-5.25-10.24-9.2-2.4-3.94-3.6-8.55-3.6-13.84 0-5.28 1.2-9.9 3.6-13.84 2.4-3.94 5.81-7 10.24-9.2 4.42-2.18 9.6-3.28 15.52-3.28s11.1 1.1 15.52 3.28c4.43 2.2 7.84 5.26 10.24 9.2 2.4 3.95 3.6 8.56 3.6 13.84 0 5.3-1.2 9.9-3.6 13.84Zm-11.68-22a12.8 12.8 0 0 0-5.84-4.8c-2.4-1.12-5.12-1.68-8.16-1.68-3.04 0-5.76.56-8.16 1.68a12.8 12.8 0 0 0-5.84 4.8c-1.44 2.08-2.16 4.62-2.16 7.6v1.12c0 2.99.72 5.52 2.16 7.6a12.8 12.8 0 0 0 5.84 4.8c2.4 1.12 5.12 1.68 8.16 1.68 3.04 0 5.76-.56 8.16-1.68a12.8 12.8 0 0 0 5.84-4.8c1.44-2.08 2.16-4.61 2.16-7.6v-1.12c0-2.98-.72-5.52-2.16-7.6ZM461.02 97.73c1.17 1.87 2.83 3.31 4.96 4.32 2.13 1.02 4.48 1.52 7.04 1.52 2.45 0 4.72-.45 6.8-1.36a19.23 19.23 0 0 0 5.52-3.68l8.4 8c-2.35 2.88-5.34 5.1-8.96 6.64a28.56 28.56 0 0 1-11.68 2.32c-5.92 0-11.12-1.1-15.6-3.28-4.48-2.19-7.95-5.25-10.4-9.2-2.46-3.94-3.68-8.55-3.68-13.84 0-5.28 1.2-9.9 3.6-13.84 2.4-3.94 5.76-7 10.08-9.2 4.32-2.18 9.34-3.28 15.04-3.28 4.05 0 7.84.72 11.36 2.16 3.52 1.44 6.56 3.6 9.12 6.48l-8.32 8.16a19.08 19.08 0 0 0-5.52-3.76 15.22 15.22 0 0 0-6.64-1.44c-2.56 0-4.88.5-6.96 1.52a12.14 12.14 0 0 0-4.96 4.4c-1.23 1.92-1.84 4.3-1.84 7.12v1.12c0 2.83.58 5.2 1.76 7.12h-.12ZM546.02 55.17v11.67h-18.24v44.33h-12.88V66.84h-18.24V55.17h49.36ZM74.98 55.17l22.56 56h-14.16l-4.56-11.53h-24.4l-4.56 11.53H35.7l22.56-56h16.72Zm2.32 34.32-6.72-17.36h-4l-6.72 17.36h17.44Z" fill="#fff"/><path fill-rule="evenodd" clip-rule="evenodd" d="M14.18 111.17 0 55.17h13.1l7.52 40.87 9.04-40.87h13.47L14.18 111.17Z" fill="url(#a)"/><defs><linearGradient id="a" x1="19.95" y1="47.04" x2="19.95" y2="111.17" gradientUnits="userSpaceOnUse"><stop stop-color="#fff"/><stop offset="1" stop-color="#fff" stop-opacity="0"/></linearGradient></defs></svg>