<svg xmlns="http://www.w3.org/2000/svg" width="70" height="22" fill="none"><path fill="#221E15" d="M2.773 16.484a2.765 2.765 0 0 1 2.772 2.758A2.765 2.765 0 0 1 2.773 22 2.765 2.765 0 0 1 0 19.242a2.765 2.765 0 0 1 2.773-2.758Z"/><path fill="#221E15" fill-rule="evenodd" d="M43.657 8c1.224 0 2.344.384 3.239 1.11l.207.169V8.233h2.666v11.023h-2.666V18.2l-.211.18c-.87.735-1.904 1.108-3.072 1.108-1.61 0-3.173-.696-4.182-1.862-.915-1.053-1.418-2.428-1.418-3.87 0-3.227 2.389-5.755 5.437-5.755Zm.364 2.41c-1.78 0-3.229 1.512-3.229 3.372 0 1.86 1.45 3.372 3.23 3.372 1.778 0 3.227-1.512 3.227-3.372 0-1.86-1.449-3.372-3.228-3.373Zm20.749-2.4c3.06 0 5.23 2.566 5.23 5.632l-.001.001c0 .295-.024.591-.07.841h-7.67c.16 1.544 1.415 2.612 2.991 2.612 1.255 0 2.26-.704 2.786-1.272l1.69 1.68c-1.074 1.272-2.833 1.976-4.545 1.976-3.31 0-5.799-2.272-5.799-5.724 0-3.066 2.1-5.745 5.389-5.745Zm0 2.386c-1.231 0-2.237.93-2.374 1.93h4.568c-.092-.977-.961-1.93-2.193-1.93Z" clip-rule="evenodd"/><path fill="#221E15" d="M57.514 8c.692 0 1.35.133 1.955.373l-.881 2.392a3.098 3.098 0 0 0-1.437-.354c-.78 0-1.495.29-2.054.773-.673.581-1.035 1.442-1.035 2.328v5.745H51.4V8.234h2.666v1.049l.21-.17c.894-.727 2.015-1.111 3.239-1.111L57.514 8ZM30.542 2.749a6.81 6.81 0 0 1 1.655.176l-.423 2.333a4.194 4.194 0 0 0-.81-.09c-.807 0-1.414.235-1.806.698l-.002.004c-.276.35-.449.786-.449 1.87v.478h3.164v2.305h-3.164v8.728h-2.785l-.001.001v-8.728h-2.04V8.22h2.04v-.594c0-1.694.362-2.801 1.177-3.587.862-.832 2.085-1.29 3.444-1.29Zm6.172 16.503h-2.968V2.766h2.968v16.486ZM16.479 8.27c.08 0 .148.067.145.148-.078 3.014-2.557 5.36-5.54 5.358L.145 13.768A.145.145 0 0 1 0 13.621c.078-3.014 2.558-5.36 5.54-5.36l10.939.009ZM22.024.009c.08 0 .148.068.145.148-.078 3.014-2.557 5.36-5.54 5.359L.145 5.508A.145.145 0 0 1 0 5.36C.078 2.346 2.558 0 5.54 0l16.484.009Z"/></svg>