<svg xmlns="http://www.w3.org/2000/svg" width="534" height="169" viewBox="0 0 534 169" fill="none">
<path d="M279.711 21.1836H257.099V147.467H279.711V21.1836Z" fill="white"/>
<path d="M533.299 104.495C533.299 81.0085 516.772 61.3555 493.462 61.3555C468.412 61.3555 452.407 81.8832 452.407 105.37C452.407 131.807 471.371 149.208 496.589 149.208C509.635 149.208 523.025 143.82 531.205 134.077L518.335 121.208C514.334 125.553 506.676 130.951 497.11 130.951C485.106 130.951 475.54 122.771 474.321 110.944H532.768C533.112 109.027 533.289 106.766 533.289 104.505L533.299 104.495ZM475.372 94.4082C476.415 86.7499 484.073 79.622 493.462 79.622C502.851 79.622 509.467 86.9267 510.165 94.4082H475.372Z" fill="white"/>
<path d="M358.878 71.0872L357.277 69.7844C350.457 64.2198 341.923 61.2793 332.599 61.2793C309.373 61.2793 291.181 80.6438 291.181 105.368C291.181 116.414 295.015 126.938 301.985 135.006C309.671 143.939 321.573 149.271 333.837 149.271C342.742 149.271 350.615 146.414 357.249 140.775L358.859 139.407V147.494H379.164V63.0566H358.859V71.0872H358.878ZM335.372 131.395C321.815 131.395 310.778 119.81 310.778 105.564C310.778 91.3171 321.815 79.7319 335.372 79.7319C348.93 79.7319 359.967 91.3171 359.967 105.564C359.967 119.81 348.93 131.395 335.372 131.395Z" fill="white"/>
<path d="M438.17 61.2886C428.846 61.2886 420.313 64.2291 413.493 69.7937L411.892 71.0965V63.0659H391.588V147.503H411.864V103.498C411.864 96.7049 414.628 90.1167 419.755 85.6594C424.008 81.9652 429.461 79.7412 435.397 79.7412C439.334 79.7412 443.046 80.7183 446.35 82.4491L453.059 64.1268C448.453 62.2936 443.437 61.2793 438.161 61.2793L438.17 61.2886Z" fill="white"/>
<path d="M197.493 147.463H218.709V80.6038H242.81V62.9515H218.709V59.2945C218.709 50.9848 220.021 47.6441 222.124 44.9642L222.143 44.9362C225.13 41.3909 229.754 39.5949 235.905 39.5949C237.785 39.5949 240.177 39.8648 242.075 40.2742L245.294 22.4079C241.358 21.4587 237.534 21.0586 232.695 21.0586C222.338 21.0586 213.023 24.5667 206.454 30.9409C200.247 36.9615 197.483 45.4387 197.483 58.4105V62.9608H181.943V80.6131H197.483V147.472L197.493 147.463Z" fill="white"/>
<path d="M127.015 64.6782C127.047 64.0188 126.521 63.4668 125.86 63.4668H42.3565C3.34594 63.4668 0.244787 97.7478 0.01556 104.629C-0.00642065 105.282 0.517347 105.823 1.17111 105.823H84.7126C123.071 105.823 126.678 71.5996 127.015 64.6789V64.6782Z" fill="white"/>
<path d="M42.3567 0C5.7828 0 0.742956 34.0712 0.0917008 41.112C0.028899 41.7902 0.562087 42.3755 1.24286 42.3755H127.088C164.499 42.3755 168.86 8.26974 169.361 1.29435C169.409 0.625506 168.879 0.0571497 168.208 0.0565216L42.3567 0Z" fill="white"/>
<path d="M21.1975 169C32.9046 169 42.395 159.51 42.395 147.803C42.395 136.096 32.9046 126.605 21.1975 126.605C9.49044 126.605 0 136.096 0 147.803C0 159.51 9.49044 169 21.1975 169Z" fill="white"/>
</svg>