<svg width="24" height="24" viewBox="0 0 24 24" fill="none" xmlns="http://www.w3.org/2000/svg">
<g clip-path="url(#clip0_4158_1161)">
<path d="M20.1876 20.1874C24.7094 15.6656 24.7094 8.33435 20.1876 3.81255C15.6658 -0.709253 8.3345 -0.709252 3.81269 3.81255C-0.70911 8.33435 -0.70911 15.6656 3.81269 20.1874C8.3345 24.7093 15.6658 24.7093 20.1876 20.1874Z" fill="#E62058"/>
<path d="M15.0929 11.0032L9.59699 10.999C8.0987 10.999 6.85256 12.1837 6.81351 13.7069C6.81226 13.7476 6.84591 13.7813 6.88662 13.7813L12.3826 13.7846V13.7854C13.8808 13.7854 15.127 12.6007 15.166 11.0775C15.1673 11.0368 15.1336 11.0032 15.0929 11.0032Z" fill="white"/>
<path d="M17.8786 6.83081L9.59748 6.82666C8.09919 6.82666 6.85304 8.01133 6.814 9.53454C6.81275 9.57525 6.8464 9.6089 6.88711 9.6089L15.1682 9.61222V9.61305C16.6665 9.61305 17.9126 8.42838 17.9517 6.90517C17.9529 6.86446 17.9193 6.83081 17.8786 6.83081Z" fill="white"/>
<path d="M8.20626 17.9389C8.97547 17.9389 9.59904 17.3153 9.59904 16.5461C9.59904 15.7769 8.97547 15.1533 8.20626 15.1533C7.43705 15.1533 6.81348 15.7769 6.81348 16.5461C6.81348 17.3153 7.43705 17.9389 8.20626 17.9389Z" fill="white"/>
</g>
<defs>
<clipPath id="clip0_4158_1161">
<rect width="24" height="24" fill="white"/>
</clipPath>
</defs>
</svg>
