<svg xmlns="http://www.w3.org/2000/svg" width="912" height="241" viewBox="0 0 912 241" fill="none">
<path d="M109.911 139.756C126.312 130.249 137.337 112.497 137.337 92.1629V68.8371C137.337 31.0998 106.752 0.5 69.0149 0.5C31.2776 0.5 0.677734 31.0998 0.677734 68.8371V93.8333H42.333V95.4582C37.2761 96.7187 32.4925 98.6777 28.1037 101.244C11.7028 110.751 0.677734 128.503 0.677734 148.837V172.163C0.677734 209.9 31.2624 240.5 68.9997 240.5C106.737 240.5 137.337 209.9 137.337 172.163V147.167H95.6815V145.542C100.738 144.281 105.522 142.322 109.911 139.756ZM82.3482 180.5C82.3482 187.86 76.3599 193.849 69.0149 193.849C61.6699 193.849 55.6664 187.86 55.6664 180.5V140.516C55.6664 133.156 61.6547 127.167 69.0149 127.167C76.3599 127.167 82.3482 133.156 82.3482 140.516V180.5ZM55.6664 60.5C55.6664 53.1398 61.6547 47.1515 69.0149 47.1515C76.3599 47.1515 82.3482 53.1398 82.3482 60.5V100.484C82.3482 107.844 76.3599 113.833 69.0149 113.833C61.6699 113.833 55.6664 107.844 55.6664 100.484V60.5Z" fill="#F2F2F2"/>
<path d="M220.924 68.8311H200.678V172.102H260.104V152.632H220.927L220.924 68.8311Z" fill="#F2F2F2"/>
<path d="M324.944 107.051C322.087 103.482 318.431 100.645 314.273 98.7746C310.115 96.9021 305.576 96.0487 301.026 96.281C296.273 96.2431 291.567 97.2317 287.225 99.18C282.883 101.128 279.008 103.989 275.861 107.572C269.103 115.185 265.369 125.031 265.369 135.235C265.369 145.438 269.103 155.285 275.861 162.898C279.009 166.478 282.885 169.338 287.226 171.285C291.568 173.232 296.273 174.22 301.026 174.182C311.298 174.182 319.27 170.592 324.944 163.412V172.119H343.873V98.3539H324.944V107.051ZM325.548 135.235C325.548 148.682 315.719 157.389 304.116 157.389C292.513 157.389 283.303 147.561 283.303 135.235C283.303 122.908 292.513 113.081 304.116 113.081C315.719 113.081 325.548 121.788 325.548 135.235Z" fill="#F2F2F2"/>
<path d="M392.643 147.926L373.506 98.3467H352.816L382.888 169.754C381.629 174.016 379.154 177.812 375.77 180.672C372.215 183.097 367.948 184.242 363.662 183.92V201.627C372.018 202.404 380.37 200.122 387.185 195.203C393.48 190.426 398.539 182.772 402.356 172.24L429.105 98.3543H408.854L392.643 147.929V147.926Z" fill="#F2F2F2"/>
<path d="M470.068 96.2675C464.908 96.0853 459.768 96.9813 454.966 98.8993C450.168 100.817 445.819 103.715 442.193 107.41C435.186 114.98 431.306 124.943 431.33 135.283C431.359 145.624 435.292 155.567 442.335 163.101C449.673 170.476 459.406 174.164 471.537 174.166C485.619 174.166 496.281 168.905 503.525 158.383L488.263 149.528C486.323 152.003 483.815 153.968 480.949 155.253C478.088 156.538 474.958 157.104 471.827 156.904C460.575 156.904 453.679 152.281 451.139 143.039H506.458C506.92 140.541 507.139 138.006 507.113 135.468C507.113 112.243 491.549 96.2675 470.068 96.2675ZM451.141 128.301C453.679 118.994 461.046 113.081 471.068 113.081C481.09 113.081 487.953 119.117 489.717 128.301H451.141Z" fill="#F2F2F2"/>
<path d="M539.328 111.019V98.3284H520.4V172.095H539.328V136.836C539.328 129.754 541.603 124.688 546.151 121.637C550.707 118.588 556.215 117.328 561.634 118.098V96.8584C556.877 96.7976 552.188 98.0201 548.059 100.4C543.983 102.778 540.883 106.546 539.328 111.019Z" fill="#F2F2F2"/>
<path d="M653.919 84.8037V68.8325H586.592V88.3086H628.267L585.508 155.841V172.102H654.738V152.632H611.155L653.919 84.8037Z" fill="#F2F2F2"/>
<path d="M699.423 96.2675C694.263 96.0853 689.118 96.9813 684.32 98.8993C679.52 100.817 675.169 103.715 671.543 107.41C664.536 114.98 660.656 124.945 660.682 135.285C660.711 145.625 664.644 155.569 671.692 163.101C679.03 170.476 688.762 174.164 700.888 174.166C714.97 174.166 725.632 168.905 732.876 158.383L717.614 149.528C715.675 152.003 713.166 153.968 710.305 155.253C707.441 156.538 704.314 157.104 701.183 156.904C689.932 156.904 683.036 152.281 680.495 143.039H735.815C736.285 140.541 736.504 138.006 736.478 135.468C736.478 112.243 720.899 96.2675 699.423 96.2675ZM680.495 128.301C683.034 118.994 690.401 113.081 700.423 113.081C710.445 113.081 717.307 119.117 719.072 128.301H680.495Z" fill="#F2F2F2"/>
<path d="M768.678 111.019V98.3284H749.75V172.095H768.678V136.836C768.678 129.754 770.953 124.688 775.501 121.637C780.057 118.588 785.565 117.328 790.983 118.098V96.8584C786.224 96.7976 781.537 98.0216 777.408 100.4C773.332 102.778 770.234 106.546 768.679 111.019H768.678Z" fill="#F2F2F2"/>
<path d="M834.139 96.2536C825.259 96.3523 816.685 99.5383 809.874 105.271C803.064 111.004 798.436 118.929 796.777 127.704C795.12 136.477 796.531 145.557 800.78 153.402C805.025 161.245 811.839 167.371 820.065 170.738C828.291 174.105 837.421 174.504 845.91 171.871C854.398 169.236 861.716 163.73 866.622 156.285C871.529 148.841 873.723 139.921 872.83 131.036C871.939 122.15 868.013 113.85 861.723 107.543C858.142 103.862 853.84 100.96 849.098 99.019C844.351 97.0767 839.259 96.1351 834.139 96.2536ZM834.139 156.831C828.487 156.831 823.048 154.571 819.051 150.574C815.054 146.577 812.794 141.138 812.794 135.486C812.794 129.834 815.054 124.395 819.051 120.398C823.048 116.401 828.487 114.141 834.139 114.141C839.791 114.141 845.23 116.401 849.227 120.398C853.224 124.395 855.484 129.834 855.484 135.486C855.484 141.138 853.224 146.577 849.227 150.574C845.23 154.571 839.791 156.831 834.139 156.831Z" fill="#F2F2F2"/>
<path d="M911.322 150.517H889.682V172.165H911.322V150.517Z" fill="#F2F2F2"/>
</svg>