<svg xmlns="http://www.w3.org/2000/svg" viewBox="0 0 64 64">
  <circle cx="32" cy="32" r="32" fill="#2775CA"/>
  <path d="M32 52c-11 0-20-9-20-20s9-20 20-20 20 9 20 20-9 20-20 20zm0-36c-8.8 0-16 7.2-16 16s7.2 16 16 16 16-7.2 16-16-7.2-16-16-16z" fill="#fff"/>
  <path d="M35 41.5c0 .8-.7 1.5-1.5 1.5h-3c-.8 0-1.5-.7-1.5-1.5V40c-2.8-.5-5-2-5.7-4.2-.2-.7.3-1.3 1-1.3h2c.5 0 .9.3 1.1.7.5 1.2 1.8 2.3 4.6 2.3 3 0 4-1.3 4-2.5 0-1.3-.8-2.4-4.5-3.2-4.2-.9-7-2.5-7-5.8 0-2.7 2.2-4.7 5.5-5.2v-1.3c0-.8.7-1.5 1.5-1.5h3c.8 0 1.5.7 1.5 1.5V21c2.3.5 4 1.7 4.8 3.5.3.6-.1 1.3-.8 1.4l-2.1.4c-.5.1-1-.1-1.2-.6-.5-1-1.6-1.7-3.7-1.7-2.7 0-3.5 1.2-3.5 2.2 0 1.1.6 2.1 4.3 2.9 4.5 1 7.2 2.7 7.2 6.1 0 2.9-2.3 5-6 5.5v.8z" fill="#fff"/>
</svg>
