<svg xmlns="http://www.w3.org/2000/svg" width="200" height="50" viewBox="0 0 200 50" fill="none">
  <!-- Left bracket { -->
  <path d="M13.8 2.8h1.1v2.8h-1.1c-1.6 0-2.9 1.3-2.9 2.9v6.4c0 1.6-.9 3-2.2 3.7 1.3.7 2.2 2.1 2.2 3.7v6.4c0 1.6 1.3 2.9 2.9 2.9h1.1v2.8h-1.1c-3.1 0-5.7-2.6-5.7-5.7v-6.4c0-1.4-1-2.5-2.3-2.8v-2.8c1.3-.3 2.3-1.4 2.3-2.8V8.5c0-3.1 2.6-5.7 5.7-5.7z" fill="white"/>
  <!-- Right bracket } -->
  <path d="M34.2 2.8h-1.1v2.8h1.1c1.6 0 2.9 1.3 2.9 2.9v6.4c0 1.6.9 3 2.2 3.7-1.3.7-2.2 2.1-2.2 3.7v6.4c0 1.6-1.3 2.9-2.9 2.9h-1.1v2.8h1.1c3.1 0 5.7-2.6 5.7-5.7v-6.4c0-1.4 1-2.5 2.3-2.8v-2.8c-1.3-.3-2.3-1.4-2.3-2.8V8.5c0-3.1-2.6-5.7-5.7-5.7z" fill="white"/>
  <!-- Top chevron -->
  <path d="M15.6 11.3h4.2l4.2 4.8 4.2-4.8h4.2l-8.4 9.5z" fill="white"/>
  <!-- Bottom chevron -->
  <path d="M32.4 32.7h-4.2l-4.2-4.8-4.2 4.8h-4.2l8.4-9.5z" fill="white"/>
  <!-- XRP Ledger text - using web-safe font -->
  <text x="50" y="30" font-family="Arial, Helvetica, sans-serif" font-size="18" font-weight="bold" fill="white">XRP Ledger</text>
</svg>
