<svg width="200" height="40" viewBox="0 0 200 40" fill="none" xmlns="http://www.w3.org/2000/svg">
  <!-- Left bracket -->
  <path d="M8 2h3v8H8c-3.3 0-6 2.7-6 6v8c0 2.2-1.8 4-4 4v4c2.2 0 4 1.8 4 4v8c0 3.3 2.7 6 6 6h3v-8H8v-8c0-2.8-1.5-5.2-3.7-6.5 2.2-1.3 3.7-3.7 3.7-6.5v-8h3V2z" fill="white"/>
  <!-- Right bracket -->
  <path d="M32 2h-3v8h3c3.3 0 6 2.7 6 6v8c0 2.2 1.8 4 4 4v4c-2.2 0-4 1.8-4 4v8c0 3.3-2.7 6-6 6h-3v-8h3v-8c0-2.8 1.5-5.2 3.7-6.5-2.2-1.3-3.7-3.7-3.7-6.5v-8h-3V2z" fill="white"/>
  <!-- Top chevron -->
  <path d="M11 12h4l8 6.5L31 12h4l-12 9.5z" fill="white"/>
  <!-- Bottom chevron -->
  <path d="M35 28h-4l-8-6.5L15 28h-4l12-9.5z" fill="white"/>
  <!-- XRP Ledger text -->
  <text x="48" y="26" font-family="Arial, Helvetica, sans-serif" font-size="16" font-weight="600" fill="white">XRP Ledger</text>
</svg>
