<svg width="180" height="36" viewBox="0 0 180 36" fill="none" xmlns="http://www.w3.org/2000/svg">
  <!-- Left bracket { -->
  <path d="M10.5 3C12 3 13 3.5 13 5.5V12C13 14 14.5 16 17 18C14.5 20 13 22 13 24V30.5C13 32.5 12 33 10.5 33H9V30H10C11 30 11.5 29.5 11.5 28.5V23C11.5 20.5 13 18.5 15.5 18C13 17.5 11.5 15.5 11.5 13V7.5C11.5 6.5 11 6 10 6H9V3H10.5Z" fill="white"/>
  <!-- Right bracket } -->
  <path d="M25.5 3C24 3 23 3.5 23 5.5V12C23 14 21.5 16 19 18C21.5 20 23 22 23 24V30.5C23 32.5 24 33 25.5 33H27V30H26C25 30 24.5 29.5 24.5 28.5V23C24.5 20.5 23 18.5 20.5 18C23 17.5 24.5 15.5 24.5 13V7.5C24.5 6.5 25 6 26 6H27V3H25.5Z" fill="white"/>
  <!-- Top chevron pointing down -->
  <path d="M13 10L18 15L23 10H20L18 12.5L16 10H13Z" fill="white"/>
  <!-- Bottom chevron pointing up -->
  <path d="M23 26L18 21L13 26H16L18 23.5L20 26H23Z" fill="white"/>
  <!-- XRP Ledger text -->
  <text x="34" y="23" font-family="system-ui, -apple-system, BlinkMacSystemFont, 'Segoe UI', Roboto, sans-serif" font-size="14" font-weight="600" fill="white" letter-spacing="0.5">XRP Ledger</text>
</svg>
