<svg width="732" height="182" viewBox="0 0 732 182" fill="none" xmlns="http://www.w3.org/2000/svg">
<path d="M299.295 81.0352L308.676 62.1796H324.421L308.457 90.3222L324.827 119.122H309.036L299.514 99.8594L289.977 119.122H274.233L290.603 90.3222L274.639 62.1796H290.399L299.295 81.0352ZM349.436 98.8432H341.978V118.95H328.329V62.1796H350.687C357.519 62.1796 362.695 63.6337 366.431 66.745C368.323 68.2468 369.834 70.1733 370.841 72.3682C371.849 74.563 372.326 76.9645 372.232 79.3779C372.35 82.8597 371.488 86.3048 369.746 89.3216C367.92 92.1275 365.333 94.3561 362.288 95.7475L374.092 118.731V119.356H359.38L349.436 98.8432ZM342.182 88.2897H350.89C351.951 88.4013 353.024 88.2723 354.028 87.9122C355.032 87.5522 355.942 86.9705 356.691 86.2103C358.07 84.597 358.805 82.5315 358.755 80.4098C358.83 79.3528 358.686 78.2915 358.331 77.2931C357.976 76.2947 357.417 75.3808 356.691 74.6093C355.93 73.868 355.017 73.2998 354.016 72.9436C353.015 72.5874 351.949 72.4516 350.89 72.5455H342.182V88.2897ZM393.573 99.6718V118.95H379.924V62.1796H402.72C406.727 62.0974 410.699 62.9485 414.321 64.6656C417.495 66.1959 420.196 68.5568 422.138 71.498C424.013 74.5479 424.948 78.0825 424.827 81.6606C424.911 84.183 424.413 86.6908 423.372 88.9899C422.33 91.289 420.774 93.3177 418.823 94.9189C414.883 98.2334 409.443 99.8907 402.454 99.8907H393.558L393.573 99.6718ZM393.573 89.1184H402.469C403.564 89.2289 404.669 89.1003 405.708 88.7412C406.747 88.3821 407.696 87.8013 408.489 87.0389C409.227 86.318 409.796 85.4415 410.153 84.4733C410.51 83.5051 410.646 82.4694 410.553 81.4417C410.694 79.1216 409.957 76.8332 408.489 75.0314C407.772 74.206 406.878 73.5536 405.874 73.1231C404.869 72.6925 403.78 72.4951 402.688 72.5455H393.573V89.1184ZM463.93 108.584H487.804V119.153H450.124V62.1796H463.805V108.584H463.93ZM528.157 94.9189H506.675V108.584H532.16V119.153H493.073V62.1796H532.441V72.7487H506.957V84.7562H528.298L528.157 94.9189ZM536.85 118.95V62.1796H555.284C560.115 62.1287 564.876 63.3299 569.105 65.6662C573.12 67.9215 576.383 71.3092 578.486 75.4066C580.74 79.6918 581.951 84.4733 581.951 89.3216C581.951 94.1699 580.74 98.9514 578.486 103.237C576.383 107.334 573.12 110.722 569.105 112.977C564.876 115.313 560.115 116.514 555.284 116.464H550.562V118.95H536.85ZM550.499 72.7487V105.895H555.284C558.052 105.967 560.796 105.356 563.279 104.112C565.542 102.926 567.404 101.104 568.638 98.8682C569.997 96.3632 570.676 93.5538 570.608 90.7151C570.676 87.8765 569.997 85.0671 568.638 82.562C567.404 80.3264 565.542 78.5044 563.279 77.3183C560.796 76.0739 558.052 75.4628 555.284 75.5351H550.499V72.7487ZM616.975 108.584H640.849V119.153H603.169V62.1796H616.85V108.584H616.975ZM687.082 94.9189H665.6V108.584H691.086V119.153H651.998V62.1796H691.367V72.7487H665.882V84.7562H687.223L687.082 94.9189ZM731.42 118.95H695.789V62.1796H731.42V72.7487H709.501V84.7562H729.592V94.9189H709.501V108.584H731.42V118.95Z" fill="white"/>
<path d="M55.3471 11.2571H59.7249V1.38619e-05H55.3471C50.7058 -0.004099 46.1092 0.907051 41.8203 2.68132C37.5315 4.4556 33.6346 7.05817 30.3526 10.3401C27.0707 13.6221 24.4681 17.5189 22.6938 21.8078C20.9196 26.0966 20.0084 30.6933 20.0125 35.3346V60.9757C20.0219 66.4049 17.9542 71.6321 14.2332 75.5856C10.5122 79.5392 5.41982 81.9196 0 82.239L0.312696 87.8675L0 93.496C5.41982 93.8154 10.5122 96.1958 14.2332 100.149C17.9542 104.103 20.0219 109.33 20.0125 114.759V144.309C19.9959 154.115 23.8731 163.525 30.7919 170.474C37.7107 177.422 47.1052 181.339 56.9106 181.364V170.107C50.1115 170.102 43.592 167.4 38.7842 162.592C33.9765 157.784 31.2737 151.265 31.2696 144.465V114.759C31.2743 109.456 29.98 104.232 27.4998 99.5442C25.0197 94.8564 21.4291 90.8474 17.0419 87.8675C21.4166 84.8751 24.9977 80.8634 27.4763 76.1784C29.955 71.4935 31.2568 66.2759 31.2696 60.9757V35.3346C31.2984 28.9577 33.8443 22.8502 38.3535 18.341C42.8627 13.8318 48.9702 11.2859 55.3471 11.2571V11.2571Z" fill="white"/>
<path d="M185.429 11.257H181.052V0H185.429C194.779 0.0248505 203.736 3.76056 210.332 10.3862C216.928 17.0118 220.624 25.9853 220.608 35.3346V60.9757C220.598 66.4049 222.666 71.632 226.387 75.5856C230.108 79.5392 235.2 81.9196 240.62 82.239L240.308 87.8675L240.62 93.496C235.2 93.8154 230.108 96.1958 226.387 100.149C222.666 104.103 220.598 109.33 220.608 114.759V144.309C220.624 154.115 216.747 163.525 209.828 170.474C202.91 177.422 193.515 181.339 183.71 181.364V170.106C190.509 170.102 197.028 167.4 201.836 162.592C206.644 157.784 209.347 151.265 209.351 144.465V114.759C209.346 109.456 210.64 104.232 213.12 99.5442C215.601 94.8564 219.191 90.8473 223.578 87.8675C219.204 84.875 215.623 80.8633 213.144 76.1784C210.665 71.4935 209.363 66.2759 209.351 60.9757V35.3346C209.367 32.1813 208.761 29.0557 207.566 26.1372C206.372 23.2187 204.613 20.5649 202.391 18.3278C200.168 16.0908 197.526 14.3146 194.615 13.1012C191.704 11.8878 188.583 11.2611 185.429 11.257V11.257Z" fill="white"/>
<path d="M161.352 45.3409H178.081L143.215 78.0176C136.96 83.6779 128.825 86.8122 120.389 86.8122C111.953 86.8122 103.817 83.6779 97.5619 78.0176L62.6963 45.3409H79.4255L105.848 70.0438C109.794 73.6652 114.955 75.6744 120.31 75.6744C125.666 75.6744 130.827 73.6652 134.773 70.0438L161.352 45.3409Z" fill="white"/>
<path d="M79.2688 136.023H62.5396L97.5615 103.189C103.782 97.4595 111.931 94.2786 120.388 94.2786C128.846 94.2786 136.994 97.4595 143.215 103.189L178.237 136.023H161.508L134.929 111.007C130.983 107.386 125.822 105.376 120.466 105.376C115.111 105.376 109.95 107.386 106.004 111.007L79.2688 136.023Z" fill="white"/>
</svg>
